<!-- ocean-wave.svg -->
<svg xmlns="http://www.w3.org/2000/svg" viewBox="0 0 1440 320" width="100%" height="320" preserveAspectRatio="none">
  <defs>
    <!-- Shark shape -->
    <symbol id="shark" viewBox="0 0 60 30">
      <ellipse cx="25" cy="15" rx="25" ry="10" fill="#4d6d89"/>
      <polygon points="50,10 60,15 50,20" fill="#4d6d89"/>
      <polygon points="20,5 30,15 20,15" fill="#4d6d89"/>
      <circle cx="15" cy="13" r="2" fill="white"/>
      <circle cx="15" cy="13" r="1" fill="black"/>
    </symbol>

    <!-- Dolphin shape -->
    <symbol id="dolphin" viewBox="0 0 60 30">
      <ellipse cx="25" cy="15" rx="20" ry="8" fill="#5dade2"/>
      <polygon points="45,12 60,15 45,18" fill="#5dade2"/>
      <polygon points="22,7 32,15 22,15" fill="#5dade2"/>
      <circle cx="12" cy="13" r="1.5" fill="black"/>
    </symbol>

    <!-- Small fish for variety -->
    <symbol id="fish" viewBox="0 0 40 20">
      <ellipse cx="12" cy="10" rx="12" ry="6" fill="#ff9933"/>
      <polygon points="24,5 40,10 24,15" fill="#ff9933"/>
      <circle cx="7" cy="9" r="1.5" fill="black"/>
    </symbol>

    <style><![CDATA[
      .swimmer {
        opacity: 0;
        transform: translateX(-80px);
      }
      @keyframes swim {
        0%   { transform: translateX(-80px); opacity: 0; }
        10%  { opacity: 1; }
        50%  { transform: translateX(720px); opacity: 1; }
        90%  { opacity: 1; }
        100% { transform: translateX(1500px); opacity: 0; }
      }
      .shark1 { animation: swim 25s linear infinite; animation-delay: 5s; }
      .shark2 { animation: swim 28s linear infinite; animation-delay: 18s; }
      .dolphin1 { animation: swim 22s linear infinite; animation-delay: 10s; }
      .dolphin2 { animation: swim 24s linear infinite; animation-delay: 20s; }
      .fish1 { animation: swim 18s linear infinite; animation-delay: 3s; }
      .fish2 { animation: swim 20s linear infinite; animation-delay: 12s; }
    ]]></style>
  </defs>

  <!-- Realistic ocean background (dark blue gradient) -->
  <linearGradient id="oceanGradient" x1="0" y1="0" x2="0" y2="1">
    <stop offset="0%" stop-color="#001f3f"/>
    <stop offset="100%" stop-color="#001233"/>
  </linearGradient>

  <!-- Wavy ocean -->
  <path fill="url(#oceanGradient)" fill-opacity="1" d="M0,224L48,213.3C96,203,192,181,288,176C384,171,480,181,576,186.7C672,192,768,192,864,181.3C960,171,1056,149,1152,154.7C1248,160,1344,192,1392,208L1440,224L1440,320L0,320Z"></path>

  <!-- Sharks -->
  <use href="#shark" x="0" y="140" width="80" height="40" class="swimmer shark1"/>
  <use href="#shark" x="0" y="190" width="90" height="45" class="swimmer shark2"/>

  <!-- Dolphins -->
  <use href="#dolphin" x="0" y="100" width="70" height="35" class="swimmer dolphin1"/>
  <use href="#dolphin" x="0" y="160" width="70" height="35" class="swimmer dolphin2"/>

  <!-- Extra fishes -->
  <use href="#fish" x="0" y="220" width="50" height="25" class="swimmer fish1"/>
  <use href="#fish" x="0" y="250" width="55" height="28" class="swimmer fish2"/>
</svg>
